<svg width="28" height="28" viewBox="0 0 28 28" fill="none" xmlns="http://www.w3.org/2000/svg">
<path d="M9.14706 16.4C9.14706 16.4 10.9338 18.8 13.9118 18.8C16.8897 18.8 18.6765 16.4 18.6765 16.4M10.3382 10.4H10.3501M17.4853 10.4H17.4972M18.6764 18.8C18.6764 18.8 16.8897 16.4 13.9117 16.4C10.9338 16.4 9.14701 18.8 9.14701 18.8M9.14709 17.6001H18.6765M25.8235 14C25.8235 20.6274 20.4905 26 13.9118 26C7.33308 26 2 20.6274 2 14C2 7.37258 7.33308 2 13.9118 2C20.4905 2 25.8235 7.37258 25.8235 14Z" stroke="#351C0B" stroke-width="3" stroke-linecap="round" stroke-linejoin="round"/>
</svg>
