<svg width="28" height="28" viewBox="0 0 28 28" fill="none" xmlns="http://www.w3.org/2000/svg">
<path d="M9.14706 16.3999C9.14706 16.3999 10.9338 18.7999 13.9118 18.7999C16.8897 18.7999 18.6765 16.3999 18.6765 16.3999M10.3382 10.3999H10.3501M17.4853 10.3999H17.4972M18.6764 18.7999C18.6764 18.7999 16.8897 16.3999 13.9117 16.3999C10.9338 16.3999 9.14701 18.7999 9.14701 18.7999M9.14709 17.6H18.6765M25.8235 13.9999C25.8235 20.6274 20.4905 25.9999 13.9118 25.9999C7.33308 25.9999 2 20.6274 2 13.9999C2 7.37252 7.33308 1.99994 13.9118 1.99994C20.4905 1.99994 25.8235 7.37252 25.8235 13.9999Z" stroke="#F8CD43" stroke-width="3" stroke-linecap="round" stroke-linejoin="round"/>
</svg>
